HIERARCHY
ROOT Hips
{
	OFFSET 0.00000 0.00000 0.00000
	CHANNELS 6 Xposition Yposition Zposition Zrotation Yrotation Xrotation 
	JOINT LHipJoint
	{
		OFFSET 0 0 0
		CHANNELS 3 Zrotation Yrotation Xrotation
		JOINT LeftHip
		{
			OFFSET 1.62329 -1.80800 0.67318
			CHANNELS 3 Zrotation Yrotation Xrotation
			JOINT LeftKnee
			{
				OFFSET 2.57139 -7.06484 0.00000
				CHANNELS 3 Zrotation Yrotation Xrotation
				JOINT LeftAnkle
				{
					OFFSET 2.52017 -6.92413 0.00000
					CHANNELS 3 Zrotation Yrotation Xrotation
					JOINT LeftToe
					{
						OFFSET 0.23295 -0.64001 2.10214
						CHANNELS 3 Zrotation Yrotation Xrotation
						End Site
						{
							OFFSET 0.00000 -0.00000 1.10139
						}
					}
				}
			}
		}
	}
	JOINT RHipJoint
	{
		OFFSET 0 0 0
		CHANNELS 3 Zrotation Yrotation Xrotation
		JOINT RightHip
		{
			OFFSET -1.48061 -1.80800 0.67318
			CHANNELS 3 Zrotation Yrotation Xrotation
			JOINT RightKnee
			{
				OFFSET -2.63258 -7.23296 0.00000
				CHANNELS 3 Zrotation Yrotation Xrotation
				JOINT RightAnkle
				{
					OFFSET -2.54779 -7.00000 0.00000
					CHANNELS 3 Zrotation Yrotation Xrotation
					JOINT RightToe
					{
						OFFSET -0.23067 -0.63376 2.12161
						CHANNELS 3 Zrotation Yrotation Xrotation
						End Site
						{
							OFFSET -0.00000 -0.00000 1.11000
						}
					}
				}
			}
		}
	}
	JOINT lowerback
	{
		OFFSET 0 0 0
		CHANNELS 3 Zrotation Yrotation Xrotation
		JOINT Chest
		{
			OFFSET -0.02108 2.07573 -0.16981
			CHANNELS 3 Zrotation Yrotation Xrotation
			JOINT Chest2
			{
				OFFSET 0.05070 2.08439 -0.03141
				CHANNELS 3 Zrotation Yrotation Xrotation
				JOINT lowerneck
				{
					OFFSET 0 0 0
					CHANNELS 3 Zrotation Yrotation Xrotation
					JOINT Neck
					{
						OFFSET -0.10731 1.60408 0.31370
						CHANNELS 3 Zrotation Yrotation Xrotation
						JOINT Head
						{
							OFFSET 0.08411 1.65679 -0.30822
							CHANNELS 3 Zrotation Yrotation Xrotation
							End Site
							{
								OFFSET 0.03911 1.69149 -0.14146
							}
						}
					}
				}
				JOINT LeftCollar
				{
					OFFSET 0 0 0
					CHANNELS 3 Zrotation Yrotation Xrotation
					JOINT LeftShoulder
					{
						OFFSET 3.52315 0.73219 -0.54694
CHANNELS 3 Zrotation Xrotation Yrotation
						JOINT LeftElbow
						{
OFFSET 0 -5.324620 -0.000000
CHANNELS 3 Zrotation Xrotation Yrotation
							JOINT LeftWrist
							{
OFFSET 0 -3.484020 -0.000000
CHANNELS 3 Zrotation Xrotation Yrotation
								JOINT lhand
								{
									OFFSET 0 0 0
CHANNELS 3 Zrotation Xrotation Yrotation
									JOINT LFingers
									{
OFFSET 0 -0.572480 -0.000000
CHANNELS 3 Zrotation Xrotation Yrotation
										End Site
										{
OFFSET 0 -0.461540 -0.000000
										}
									}
								}
								JOINT LThumb
								{
OFFSET 0 0.000000 0.000000
CHANNELS 3 Zrotation Xrotation Yrotation
									End Site
									{
OFFSET 0 -0.468590 0.468590
									}
								}
							}
						}
					}
				}
				JOINT RightCollar
				{
					OFFSET 0 0 0
					CHANNELS 3 Zrotation Yrotation Xrotation
					JOINT RightShoulder
					{
						OFFSET -3.41766 0.93592 -0.10019
CHANNELS 3 Zrotation Xrotation Yrotation
						JOINT RightElbow
						{
OFFSET 0 -5.335890 -0.000000
CHANNELS 3 Zrotation Xrotation Yrotation
							JOINT RightWrist
							{
OFFSET 0 -3.641340 -0.000000
CHANNELS 3 Zrotation Xrotation Yrotation
								JOINT rhand
								{
									OFFSET 0 0 0
CHANNELS 3 Zrotation Xrotation Yrotation
									JOINT RFingers
									{
OFFSET 0 -0.734810 -0.000000
CHANNELS 3 Zrotation Xrotation Yrotation
										End Site
										{
OFFSET 0 -0.592420 -0.000000
										}
									}
								}
								JOINT RThumb
								{
OFFSET 0 0.000000 0.000000
CHANNELS 3 Zrotation Xrotation Yrotation
									End Site
									{
OFFSET 0 -0.601470 0.601470
									}
								}
							}
						}
					}
				}
			}
		}
	}
}
MOTION
Frames: 4
Frame Time: 0.008333333333333333
1.473900 17.742700 13.008800 179.238000 -4.656600 -173.651000 0.000000 0.000000 0.000000 -23.877500 -4.088600 -12.794400 1.582300 7.935700 22.519000 0.515900 -3.198900 -12.850800 0.211900 -2.963600 -8.177400 0.000000 0.000000 0.000000 20.323900 9.343100 -15.454400 -2.945400 -10.606100 30.962700 -1.380400 0.756900 -21.988400 -0.391200 -4.016400 11.122900 -3.463400 -2.062700 0.518300 2.925600 -2.811700 -1.003900 4.995500 -1.386200 -1.010600 -8.506700 -2.673200 -24.266500 2.387700 0.960900 35.103200 2.958200 0.285900 16.828500 0.000000 -0.000000 0.000000 -1.157900 0.374900 -24.729300 18.411300 -28.680600 4.745000 15.348100 12.460800 -25.720500 0.000000 0.000000 0.000000 -7.125000 0.000000 0.000000 -15.593300 55.836600 4.219400 0.000000 -0.000000 0.000000 -3.971300 2.371100 19.948900 -17.539900 -27.564000 -4.334200 -21.066000 20.090200 -1.706400 0.000000 0.000000 0.000000 7.125000 0.000000 -0.000000 4.264000 28.142300 1.753200
1.461733 17.741578 13.010867 179.417554 -4.640774 -173.641391 0.000000 0.000000 0.000000 -23.717158 -4.010350 -12.945297 1.602134 7.982817 22.661952 0.527589 -3.298134 -12.989904 0.358151 -3.844592 -10.639809 0.000000 0.000000 0.000000 20.479599 9.411227 -15.394048 -2.927005 -10.575922 30.862760 -1.378967 0.757707 -21.976420 -0.419488 -4.157159 11.519194 -3.243098 -2.067318 0.452152 2.939177 -2.816180 -1.002244 4.881913 -1.392095 -0.980906 -8.576294 -2.633757 -23.970132 2.538843 0.997222 35.135727 3.046493 0.327180 16.769359 0.000000 0.000000 0.000000 -1.087008 0.426441 -24.762545 18.200942 -28.413618 4.644468 14.807227 13.409791 -27.574770 0.000000 0.000000 0.000000 -7.125000 0.000000 0.000000 -17.231911 57.514811 5.387907 0.000000 0.000000 0.000000 -3.945367 2.400958 19.916586 -17.579677 -27.615576 -4.352644 -20.965276 20.059935 -1.757782 0.000000 0.000000 0.000000 7.125000 0.000000 0.000000 4.340135 28.088280 1.790217
1.452177 17.742800 13.012689 179.383773 -4.657290 -173.668224 0.000000 0.000000 0.000000 -23.787654 -4.041445 -12.938476 1.614635 8.012538 22.752170 0.528635 -3.250188 -13.008362 0.356512 -3.836192 -10.616231 0.000000 0.000000 0.000000 20.411967 9.396680 -15.347850 -2.919432 -10.563531 30.821493 -1.375577 0.728357 -21.957670 -0.411557 -4.117976 11.408793 -3.292693 -2.070318 0.512394 2.935500 -2.821350 -0.992010 4.908503 -1.393575 -1.001479 -8.426407 -2.587354 -23.790826 2.318065 1.087941 35.106341 2.938518 0.359558 16.707538 0.000000 0.000000 0.000000 -1.047916 0.474147 -24.622806 17.823246 -27.930148 4.466196 14.471886 12.914586 -26.649486 0.000000 0.000000 0.000000 -7.125000 0.000000 0.000000 -17.016270 56.556611 4.920636 0.000000 0.000000 0.000000 -4.036822 2.398735 20.158904 -17.582912 -27.619879 -4.354189 -21.092742 19.877705 -1.464047 0.000000 0.000000 0.000000 7.125000 0.000000 0.000000 4.251739 28.401011 1.722061
1.437898 17.747916 13.027849 179.896529 -3.594109 -173.070187 0.000000 0.000000 0.000000 -23.325608 -4.080227 -13.822947 1.646303 8.086840 22.978202 0.544719 -2.473338 -13.313330 0.346188 -3.780374 -10.459684 0.000000 0.000000 0.000000 20.695332 10.045202 -16.029035 -2.889797 -10.514528 30.659549 -1.294532 1.015754 -21.205867 -0.394538 -4.033105 11.169779 -2.799645 -1.699161 0.025333 3.024537 -2.322892 -1.118236 4.704815 -1.152397 -0.927587 -8.446733 -2.599672 -23.826069 2.356389 1.068214 35.128335 2.956422 0.353298 16.728298 0.000000 0.000000 0.000000 -1.063564 0.437577 -24.372183 17.403258 -27.386228 4.271181 14.374957 13.480711 -26.517063 0.000000 0.000000 0.000000 -7.125000 0.000000 0.000000 -17.036514 56.409535 4.864933 0.000000 0.000000 0.000000 -4.024126 2.432961 20.109675 -17.698257 -27.769113 -4.407811 -21.164160 20.016391 -1.508182 0.000000 0.000000 0.000000 7.125000 0.000000 0.000000 4.194839 28.353369 1.703617
